<svg width="388" height="62" viewBox="0 0 388 62" fill="none" xmlns="http://www.w3.org/2000/svg">
    <path
        d="M68.15 12.925C68.6833 12.825 69.3583 12.75 70.175 12.7C71.0083 12.65 71.6583 12.625 72.125 12.625C72.5917 12.625 73.1917 12.6417 73.925 12.675C74.6583 12.6917 75.3667 12.75 76.05 12.85L74.35 20.525L73.875 20.675C73.975 21.975 74.0583 23.4333 74.125 25.05C74.2083 26.65 74.275 28.2667 74.325 29.9C74.375 31.5167 74.4 32.9833 74.4 34.3V47C73.85 47.1 73.3083 47.1583 72.775 47.175C72.2417 47.2083 71.7583 47.225 71.325 47.225C70.925 47.225 70.425 47.2083 69.825 47.175C69.2417 47.1583 68.6833 47.1 68.15 47V12.925ZM77.05 27.625C76.4667 26.3583 75.9167 25.125 75.4 23.925C74.9 22.725 74.45 21.6167 74.05 20.6L70.925 16.95L76.05 12.85L85.15 32.2C85.7833 33.5833 86.375 34.925 86.925 36.225C87.475 37.5083 87.9583 38.6417 88.375 39.625L91.75 43.225L86.275 47L77.05 27.625ZM94.25 12.875V46.925C93.9 46.9917 93.4667 47.05 92.95 47.1C92.45 47.15 91.95 47.1833 91.45 47.2C90.9667 47.2167 90.5583 47.225 90.225 47.225C89.7083 47.225 89.1 47.2083 88.4 47.175C87.7 47.1583 86.9917 47.1 86.275 47L88.05 39.675L88.575 39.55C88.4583 38.1 88.3583 36.5333 88.275 34.85C88.1917 33.1667 88.1333 31.5333 88.1 29.95C88.0667 28.3667 88.05 27 88.05 25.85V16.675C88.05 15.1917 88.3333 14.1417 88.9 13.525C89.4833 12.8917 90.4333 12.575 91.75 12.575H93.9L94.25 12.875ZM121.499 47.225C120.999 47.225 120.44 47.2083 119.824 47.175C119.207 47.1583 118.624 47.1 118.074 47V35.875C118.074 35.175 118.082 34.55 118.099 34C118.115 33.45 118.124 32.8417 118.124 32.175V26.6C118.124 25.9167 118.115 25.3083 118.099 24.775C118.082 24.225 118.074 23.6 118.074 22.9V12.85C118.624 12.75 119.199 12.6917 119.799 12.675C120.415 12.6417 120.957 12.625 121.424 12.625C121.874 12.625 122.415 12.6417 123.049 12.675C123.699 12.6917 124.282 12.75 124.799 12.85V47C124.249 47.1 123.682 47.1583 123.099 47.175C122.515 47.2083 121.982 47.225 121.499 47.225ZM102.424 47.225C101.99 47.225 101.449 47.2083 100.799 47.175C100.165 47.1583 99.5905 47.1 99.0738 47V12.85C99.5905 12.75 100.165 12.6917 100.799 12.675C101.449 12.6417 101.99 12.625 102.424 12.625C102.89 12.625 103.432 12.6417 104.049 12.675C104.665 12.6917 105.249 12.75 105.799 12.85V22.9C105.799 23.6 105.79 24.225 105.774 24.775C105.757 25.3083 105.749 25.9167 105.749 26.6V32.175C105.749 32.8417 105.757 33.45 105.774 34C105.79 34.55 105.799 35.175 105.799 35.875V47C105.249 47.1 104.665 47.1583 104.049 47.175C103.432 47.2083 102.89 47.225 102.424 47.225ZM101.724 32.225V26.55C102.39 26.55 103.065 26.5583 103.749 26.575C104.432 26.5917 105.099 26.6 105.749 26.6C105.965 26.6 106.24 26.6 106.574 26.6C106.907 26.5833 107.249 26.575 107.599 26.575C107.949 26.5583 108.224 26.55 108.424 26.55H115.474C115.674 26.55 115.94 26.5583 116.274 26.575C116.624 26.575 116.974 26.5833 117.324 26.6C117.674 26.6 117.94 26.6 118.124 26.6C118.79 26.6 119.457 26.5917 120.124 26.575C120.807 26.5583 121.482 26.55 122.149 26.55V32.225C121.482 32.225 120.807 32.2167 120.124 32.2C119.457 32.1833 118.79 32.175 118.124 32.175C117.94 32.175 117.674 32.1833 117.324 32.2C116.974 32.2 116.624 32.2083 116.274 32.225C115.94 32.225 115.674 32.225 115.474 32.225H108.424C108.224 32.225 107.949 32.225 107.599 32.225C107.249 32.2083 106.907 32.2 106.574 32.2C106.24 32.1833 105.965 32.175 105.749 32.175C105.099 32.175 104.432 32.1833 103.749 32.2C103.065 32.2167 102.39 32.225 101.724 32.225ZM137.332 12.85C137.849 12.7667 138.482 12.7083 139.232 12.675C139.999 12.6417 140.657 12.625 141.207 12.625C141.724 12.625 142.365 12.6417 143.132 12.675C143.899 12.7083 144.532 12.775 145.032 12.875L156.007 46.575C155.54 46.8417 154.949 47.0417 154.232 47.175C153.515 47.3083 152.824 47.375 152.157 47.375C151.09 47.375 150.257 47.1333 149.657 46.65C149.074 46.1667 148.574 45.2167 148.157 43.8L143.632 28.85C143.215 27.4167 142.757 25.8167 142.257 24.05C141.774 22.2833 141.34 20.65 140.957 19.15H140.657C140.49 19.9833 140.274 20.9083 140.007 21.925C139.757 22.9417 139.49 23.95 139.207 24.95C138.94 25.9333 138.699 26.8083 138.482 27.575L132.507 47.05C132.09 47.15 131.64 47.2083 131.157 47.225C130.674 47.2583 130.165 47.275 129.632 47.275C129.099 47.275 128.524 47.2417 127.907 47.175C127.29 47.1083 126.782 47.0083 126.382 46.875L126.157 46.5L137.332 12.85ZM137.307 39.325C137.107 39.325 136.807 39.325 136.407 39.325C136.024 39.3083 135.64 39.3 135.257 39.3C134.874 39.2833 134.582 39.275 134.382 39.275H131.007L133.057 33.975H136.032C136.232 33.975 136.507 33.975 136.857 33.975C137.207 33.9583 137.565 33.95 137.932 33.95C138.299 33.9333 138.574 33.925 138.757 33.925H143.057C143.274 33.925 143.557 33.9333 143.907 33.95C144.257 33.95 144.615 33.9583 144.982 33.975C145.349 33.975 145.632 33.975 145.832 33.975H148.882L150.632 39.275H147.282C147.082 39.275 146.782 39.2833 146.382 39.3C145.982 39.3 145.582 39.3083 145.182 39.325C144.799 39.325 144.507 39.325 144.307 39.325H137.307ZM150.927 18.45C150.827 17.95 150.761 17.4583 150.727 16.975C150.694 16.4917 150.677 16.0583 150.677 15.675C150.677 15.275 150.694 14.8333 150.727 14.35C150.761 13.85 150.827 13.35 150.927 12.85H174.827C174.944 13.2167 175.027 13.6333 175.077 14.1C175.144 14.5667 175.177 15.0167 175.177 15.45C175.177 16.55 174.886 17.325 174.302 17.775C173.719 18.225 172.811 18.45 171.577 18.45H169.227C168.877 18.45 168.377 18.4417 167.727 18.425C167.094 18.4083 166.586 18.4 166.202 18.4H159.502C159.152 18.4 158.644 18.4083 157.977 18.425C157.327 18.4417 156.827 18.45 156.477 18.45H150.927ZM159.502 22.1C159.502 21.4167 159.502 20.8083 159.502 20.275C159.519 19.725 159.527 19.1 159.527 18.4V15.625H166.177V18.4C166.177 19.1 166.177 19.725 166.177 20.275C166.194 20.8083 166.202 21.4167 166.202 22.1V47C165.652 47.1 165.077 47.1583 164.477 47.175C163.877 47.2083 163.344 47.225 162.877 47.225C162.377 47.225 161.827 47.2083 161.227 47.175C160.627 47.1583 160.052 47.1 159.502 47V22.1ZM201.613 25.575C201.646 24.2583 201.479 22.9833 201.113 21.75C200.763 20.5 200.129 19.4833 199.213 18.7C198.313 17.9 197.038 17.5 195.388 17.5C193.021 17.5 191.279 18.575 190.163 20.725C189.046 22.875 188.488 26 188.488 30.1C188.488 33.95 189.146 36.875 190.463 38.875C191.796 40.8583 193.654 41.85 196.038 41.85C197.688 41.85 199.221 41.5 200.638 40.8C202.071 40.1 203.438 39.2333 204.738 38.2C205.421 38.65 206.079 39.2917 206.713 40.125C207.346 40.9417 207.746 41.7417 207.913 42.525C206.979 43.4583 205.829 44.3167 204.463 45.1C203.096 45.8833 201.596 46.5083 199.963 46.975C198.329 47.4417 196.621 47.675 194.838 47.675C192.321 47.675 190.204 47.175 188.488 46.175C186.771 45.175 185.396 43.8333 184.363 42.15C183.329 40.45 182.579 38.5583 182.113 36.475C181.663 34.375 181.438 32.2417 181.438 30.075C181.438 25.8917 182.088 22.4833 183.388 19.85C184.688 17.2 186.404 15.25 188.538 14C190.688 12.75 193.046 12.125 195.613 12.125C198.146 12.125 200.346 12.5917 202.213 13.525C204.079 14.4417 205.521 15.6667 206.538 17.2C207.554 18.7167 208.063 20.3917 208.063 22.225C208.063 23.475 207.738 24.4083 207.088 25.025C206.454 25.6417 205.504 25.95 204.238 25.95C203.754 25.95 203.304 25.9167 202.888 25.85C202.488 25.7833 202.063 25.6917 201.613 25.575ZM218.01 12.85C218.526 12.7667 219.16 12.7083 219.91 12.675C220.676 12.6417 221.335 12.625 221.885 12.625C222.401 12.625 223.043 12.6417 223.81 12.675C224.576 12.7083 225.21 12.775 225.71 12.875L236.685 46.575C236.218 46.8417 235.626 47.0417 234.91 47.175C234.193 47.3083 233.501 47.375 232.835 47.375C231.768 47.375 230.935 47.1333 230.335 46.65C229.751 46.1667 229.251 45.2167 228.835 43.8L224.31 28.85C223.893 27.4167 223.435 25.8167 222.935 24.05C222.451 22.2833 222.018 20.65 221.635 19.15H221.335C221.168 19.9833 220.951 20.9083 220.685 21.925C220.435 22.9417 220.168 23.95 219.885 24.95C219.618 25.9333 219.376 26.8083 219.16 27.575L213.185 47.05C212.768 47.15 212.318 47.2083 211.835 47.225C211.351 47.2583 210.843 47.275 210.31 47.275C209.776 47.275 209.201 47.2417 208.585 47.175C207.968 47.1083 207.46 47.0083 207.06 46.875L206.835 46.5L218.01 12.85ZM217.985 39.325C217.785 39.325 217.485 39.325 217.085 39.325C216.701 39.3083 216.318 39.3 215.935 39.3C215.551 39.2833 215.26 39.275 215.06 39.275H211.685L213.735 33.975H216.71C216.91 33.975 217.185 33.975 217.535 33.975C217.885 33.9583 218.243 33.95 218.61 33.95C218.976 33.9333 219.251 33.925 219.435 33.925H223.735C223.951 33.925 224.235 33.9333 224.585 33.95C224.935 33.95 225.293 33.9583 225.66 33.975C226.026 33.975 226.31 33.975 226.51 33.975H229.56L231.31 39.275H227.96C227.76 39.275 227.46 39.2833 227.06 39.3C226.66 39.3 226.26 39.3083 225.86 39.325C225.476 39.325 225.185 39.325 224.985 39.325H217.985ZM261.21 24.125C261.21 26.6417 260.701 28.7583 259.685 30.475C258.668 32.175 257.26 33.4667 255.46 34.35C253.676 35.2167 251.635 35.65 249.335 35.65H241.91V30.625C242.426 30.5917 243.16 30.5667 244.11 30.55C245.06 30.5167 245.993 30.4917 246.91 30.475C247.843 30.4583 248.51 30.45 248.91 30.45C250.393 30.45 251.526 30.1083 252.31 29.425C253.093 28.7417 253.618 27.9167 253.885 26.95C254.168 25.9667 254.31 25.025 254.31 24.125C254.31 23.225 254.168 22.2917 253.885 21.325C253.618 20.3417 253.093 19.5167 252.31 18.85C251.526 18.1667 250.393 17.825 248.91 17.825C248.31 17.825 247.651 17.825 246.935 17.825C246.235 17.8083 245.51 17.7917 244.76 17.775V47C244.21 47.1 243.626 47.1583 243.01 47.175C242.393 47.2083 241.851 47.225 241.385 47.225C240.951 47.225 240.41 47.2083 239.76 47.175C239.126 47.1583 238.551 47.1 238.035 47V13.125L238.385 12.775C240.385 12.7417 242.26 12.7083 244.01 12.675C245.776 12.6417 247.551 12.625 249.335 12.625C251.635 12.625 253.676 13.0417 255.46 13.875C257.243 14.7083 258.643 15.975 259.66 17.675C260.693 19.375 261.21 21.525 261.21 24.125ZM297.502 29.925C297.502 31.875 297.369 33.75 297.102 35.55C296.836 37.3333 296.311 39 295.527 40.55C294.761 42.1 293.594 43.4917 292.027 44.725C291.277 45.325 290.377 45.8167 289.327 46.2C288.277 46.5667 287.202 46.8333 286.102 47C285.002 47.1833 283.994 47.275 283.077 47.275C281.694 47.275 280.377 47.2667 279.127 47.25C277.877 47.2333 276.619 47.2083 275.352 47.175C274.086 47.1417 272.727 47.1083 271.277 47.075L270.927 46.725V13.125L271.277 12.775C272.711 12.725 274.061 12.6917 275.327 12.675C276.594 12.6417 277.852 12.625 279.102 12.625C280.369 12.625 281.694 12.625 283.077 12.625C283.994 12.625 285.002 12.7083 286.102 12.875C287.219 13.0417 288.302 13.3083 289.352 13.675C290.402 14.0417 291.294 14.525 292.027 15.125C293.577 16.3583 294.736 17.7583 295.502 19.325C296.286 20.875 296.811 22.55 297.077 24.35C297.361 26.1333 297.502 27.9917 297.502 29.925ZM290.577 29.925C290.577 28.5417 290.486 27.1417 290.302 25.725C290.119 24.3083 289.769 23.0167 289.252 21.85C288.752 20.6667 288.002 19.7167 287.002 19C286.019 18.2667 284.711 17.9 283.077 17.9C282.127 17.9 281.227 17.8917 280.377 17.875C279.544 17.8583 278.627 17.85 277.627 17.85V41.975C278.627 41.9583 279.544 41.9583 280.377 41.975C281.227 41.975 282.127 41.975 283.077 41.975C284.711 41.975 286.019 41.6167 287.002 40.9C288.002 40.1667 288.752 39.2083 289.252 38.025C289.769 36.825 290.119 35.5167 290.302 34.1C290.486 32.6833 290.577 31.2917 290.577 29.925ZM307.477 12.85C307.993 12.7667 308.627 12.7083 309.377 12.675C310.143 12.6417 310.802 12.625 311.352 12.625C311.868 12.625 312.51 12.6417 313.277 12.675C314.043 12.7083 314.677 12.775 315.177 12.875L326.152 46.575C325.685 46.8417 325.093 47.0417 324.377 47.175C323.66 47.3083 322.968 47.375 322.302 47.375C321.235 47.375 320.402 47.1333 319.802 46.65C319.218 46.1667 318.718 45.2167 318.302 43.8L313.777 28.85C313.36 27.4167 312.902 25.8167 312.402 24.05C311.918 22.2833 311.485 20.65 311.102 19.15H310.802C310.635 19.9833 310.418 20.9083 310.152 21.925C309.902 22.9417 309.635 23.95 309.352 24.95C309.085 25.9333 308.843 26.8083 308.627 27.575L302.652 47.05C302.235 47.15 301.785 47.2083 301.302 47.225C300.818 47.2583 300.31 47.275 299.777 47.275C299.243 47.275 298.668 47.2417 298.052 47.175C297.435 47.1083 296.927 47.0083 296.527 46.875L296.302 46.5L307.477 12.85ZM307.452 39.325C307.252 39.325 306.952 39.325 306.552 39.325C306.168 39.3083 305.785 39.3 305.402 39.3C305.018 39.2833 304.727 39.275 304.527 39.275H301.152L303.202 33.975H306.177C306.377 33.975 306.652 33.975 307.002 33.975C307.352 33.9583 307.71 33.95 308.077 33.95C308.443 33.9333 308.718 33.925 308.902 33.925H313.202C313.418 33.925 313.702 33.9333 314.052 33.95C314.402 33.95 314.76 33.9583 315.127 33.975C315.493 33.975 315.777 33.975 315.977 33.975H319.027L320.777 39.275H317.427C317.227 39.275 316.927 39.2833 316.527 39.3C316.127 39.3 315.727 39.3083 315.327 39.325C314.943 39.325 314.652 39.325 314.452 39.325H307.452ZM327.502 12.925C328.035 12.825 328.71 12.75 329.527 12.7C330.36 12.65 331.01 12.625 331.477 12.625C331.943 12.625 332.543 12.6417 333.277 12.675C334.01 12.6917 334.718 12.75 335.402 12.85L333.702 20.525L333.227 20.675C333.327 21.975 333.41 23.4333 333.477 25.05C333.56 26.65 333.627 28.2667 333.677 29.9C333.727 31.5167 333.752 32.9833 333.752 34.3V47C333.202 47.1 332.66 47.1583 332.127 47.175C331.593 47.2083 331.11 47.225 330.677 47.225C330.277 47.225 329.777 47.2083 329.177 47.175C328.593 47.1583 328.035 47.1 327.502 47V12.925ZM336.402 27.625C335.818 26.3583 335.268 25.125 334.752 23.925C334.252 22.725 333.802 21.6167 333.402 20.6L330.277 16.95L335.402 12.85L344.502 32.2C345.135 33.5833 345.727 34.925 346.277 36.225C346.827 37.5083 347.31 38.6417 347.727 39.625L351.102 43.225L345.627 47L336.402 27.625ZM353.602 12.875V46.925C353.252 46.9917 352.818 47.05 352.302 47.1C351.802 47.15 351.302 47.1833 350.802 47.2C350.318 47.2167 349.91 47.225 349.577 47.225C349.06 47.225 348.452 47.2083 347.752 47.175C347.052 47.1583 346.343 47.1 345.627 47L347.402 39.675L347.927 39.55C347.81 38.1 347.71 36.5333 347.627 34.85C347.543 33.1667 347.485 31.5333 347.452 29.95C347.418 28.3667 347.402 27 347.402 25.85V16.675C347.402 15.1917 347.685 14.1417 348.252 13.525C348.835 12.8917 349.785 12.575 351.102 12.575H353.252L353.602 12.875ZM383.775 15.775C383.675 16.7583 383.3 17.7083 382.65 18.625C382.017 19.525 381.367 20.2 380.7 20.65C379.484 19.8 378.125 19.1083 376.625 18.575C375.125 18.0417 373.634 17.775 372.15 17.775C370.417 17.775 368.884 18.1917 367.55 19.025C366.217 19.8583 365.167 21.1917 364.4 23.025C363.65 24.8417 363.275 27.2417 363.275 30.225C363.275 34.375 364.05 37.4333 365.6 39.4C367.15 41.35 369.409 42.325 372.375 42.325C374.075 42.325 375.625 42.15 377.025 41.8C378.425 41.45 379.542 41.1333 380.375 40.85L383.85 45.6C382.867 45.95 381.7 46.2833 380.35 46.6C379.017 46.9167 377.567 47.175 376 47.375C374.45 47.575 372.859 47.675 371.225 47.675C368.592 47.675 366.334 47.2417 364.45 46.375C362.584 45.5083 361.059 44.2917 359.875 42.725C358.692 41.1417 357.817 39.2833 357.25 37.15C356.684 35.0167 356.4 32.6833 356.4 30.15C356.4 27.05 356.825 24.3667 357.675 22.1C358.542 19.8333 359.709 17.9667 361.175 16.5C362.659 15.0333 364.317 13.95 366.15 13.25C368 12.5333 369.9 12.175 371.85 12.175C374.034 12.175 376.167 12.5 378.25 13.15C380.334 13.8 382.175 14.675 383.775 15.775ZM377.525 37.275C377.525 36.1083 377.559 34.9417 377.625 33.775C377.709 32.6083 377.875 31.55 378.125 30.6L383.85 32.525V45.6L377.525 45.7V37.275ZM379.3 28.3C381 28.3 382.184 28.6833 382.85 29.45C383.517 30.2167 383.85 31.2417 383.85 32.525V33.95H374.275C373.642 33.95 373.075 33.8667 372.575 33.7C372.092 33.5333 371.709 33.25 371.425 32.85C371.159 32.4333 371.025 31.85 371.025 31.1C371.025 30.6333 371.075 30.15 371.175 29.65C371.275 29.1333 371.392 28.6833 371.525 28.3H379.3Z"
        fill="white" />
    <path
        d="M61.9592 2.36535C61.0967 3.13535 58.1219 5.70785 55.3584 8.08785C52.5949 10.4678 47.4551 14.9128 43.9171 17.9753C24.4316 34.8628 19.0806 39.4478 18.975 39.3428C18.887 39.2553 21.4745 26.1653 21.7561 25.2728C21.9673 24.6078 22.3722 24.3628 23.1819 24.3628C23.8684 24.3628 24.0972 24.5728 25.787 26.7778C26.4383 27.6353 26.9839 28.1953 27.1247 28.1428C27.248 28.0903 28.2513 27.3903 29.3426 26.5853C30.4339 25.7803 31.5429 24.9753 31.8069 24.8178L32.2997 24.5028L30.698 22.4203C28.6913 19.8303 27.7056 18.9903 25.787 18.2903C22.7946 17.1703 19.5383 17.9578 17.2852 20.3203C15.5602 22.1228 15.3666 22.6828 13.624 31.5203C11.723 41.1453 11.6173 41.6179 10.9485 43.3504C9.78673 46.4479 8.67781 47.8129 4.2773 51.6979C2.69311 53.0804 1.09133 54.4979 0.704082 54.8829L0 55.5479L0.880102 54.9529C1.37296 54.6029 4.25969 52.6079 7.30485 50.4904C10.35 48.3729 14.152 45.7654 15.7538 44.6629C17.3556 43.5779 19.5383 42.0729 20.5944 41.3378C21.6681 40.6028 24.8189 38.4328 27.6176 36.5078C30.4163 34.6003 35.3801 31.2053 38.6189 28.9653C47.6839 22.7528 47.9656 22.5603 48.0184 22.6303C48.0536 22.6653 47.3847 26.1303 46.5398 30.3128C45.6949 34.4953 44.9908 37.9778 44.9908 38.0478C44.9556 38.3453 44.1635 38.8878 43.7763 38.8878C43.0546 38.8878 42.773 38.6078 40.7487 36.0003C39.5166 34.4253 38.7069 33.5153 38.5661 33.5853C38.4605 33.6553 37.3867 34.4428 36.1722 35.3528C34.9577 36.2453 33.8663 37.0503 33.7255 37.1378C33.5319 37.2428 33.6727 37.5228 34.324 38.3803C38.0732 43.2804 38.6365 43.8404 40.6959 44.8029C41.6288 45.2229 41.9105 45.2754 43.7411 45.2754C45.7477 45.2754 45.8005 45.2579 47.1031 44.6279C48.7929 43.7879 50.0778 42.5454 50.8875 40.9178C51.4332 39.7978 51.7324 38.4853 53.7742 28.3878C55.024 22.1753 56.3441 16.1553 56.6786 15.0178C57.9283 10.8878 59.8645 6.75785 62.3288 3.03035C63.0505 1.94535 63.6314 1.03535 63.5962 1.00035C63.561 0.982846 62.8393 1.59535 61.9592 2.36535Z"
        fill="white" />
</svg>