<svg width="64" height="55" viewBox="0 0 64 55" fill="none" xmlns="http://www.w3.org/2000/svg">
    <path
        d="M61.9592 1.36535C61.0967 2.13535 58.1219 4.70785 55.3584 7.08785C52.5949 9.46785 47.4551 13.9128 43.9171 16.9753C24.4316 33.8628 19.0806 38.4478 18.975 38.3428C18.887 38.2553 21.4745 25.1653 21.7561 24.2728C21.9673 23.6078 22.3722 23.3628 23.1819 23.3628C23.8684 23.3628 24.0972 23.5728 25.787 25.7778C26.4383 26.6353 26.9839 27.1953 27.1247 27.1428C27.248 27.0903 28.2513 26.3903 29.3426 25.5853C30.4339 24.7803 31.5429 23.9753 31.8069 23.8178L32.2997 23.5028L30.698 21.4203C28.6913 18.8303 27.7056 17.9903 25.787 17.2903C22.7946 16.1703 19.5383 16.9578 17.2852 19.3203C15.5602 21.1228 15.3666 21.6828 13.624 30.5203C11.723 40.1453 11.6173 40.6179 10.9485 42.3504C9.78673 45.4479 8.67781 46.8129 4.2773 50.6979C2.69311 52.0804 1.09133 53.4979 0.704082 53.8829L0 54.5479L0.880102 53.9529C1.37296 53.6029 4.25969 51.6079 7.30485 49.4904C10.35 47.3729 14.152 44.7654 15.7538 43.6629C17.3556 42.5779 19.5383 41.0729 20.5944 40.3378C21.6681 39.6028 24.8189 37.4328 27.6176 35.5078C30.4163 33.6003 35.3801 30.2053 38.6189 27.9653C47.6839 21.7528 47.9656 21.5603 48.0184 21.6303C48.0536 21.6653 47.3847 25.1303 46.5398 29.3128C45.6949 33.4953 44.9908 36.9778 44.9908 37.0478C44.9556 37.3453 44.1635 37.8878 43.7763 37.8878C43.0546 37.8878 42.773 37.6078 40.7487 35.0003C39.5166 33.4253 38.7069 32.5153 38.5661 32.5853C38.4605 32.6553 37.3867 33.4428 36.1722 34.3528C34.9577 35.2453 33.8663 36.0503 33.7255 36.1378C33.5319 36.2428 33.6727 36.5228 34.324 37.3803C38.0732 42.2804 38.6365 42.8404 40.6959 43.8029C41.6288 44.2229 41.9105 44.2754 43.7411 44.2754C45.7477 44.2754 45.8005 44.2579 47.1031 43.6279C48.7929 42.7879 50.0778 41.5454 50.8875 39.9178C51.4332 38.7978 51.7324 37.4853 53.7742 27.3878C55.024 21.1753 56.3441 15.1553 56.6786 14.0178C57.9283 9.88785 59.8645 5.75785 62.3288 2.03035C63.0505 0.945346 63.6314 0.0353455 63.5962 0.000345524C63.561 -0.0171545 62.8393 0.595346 61.9592 1.36535Z"
        fill="white" />
</svg>